<?xml version="1.0" encoding="utf-8"?>
<!-- Generator: Adobe Illustrator 25.2.2, SVG Export Plug-In . SVG Version: 6.00 Build 0)  -->
<svg version="1.1" id="Calque_1" xmlns="http://www.w3.org/2000/svg" xmlns:xlink="http://www.w3.org/1999/xlink" x="0px" y="0px"
	 viewBox="0 0 216.5 259.5" style="enable-background:new 0 0 216.5 259.5;" xml:space="preserve">
<style type="text/css">
	.st0{fill:#E8E8E8;}
</style>
<g id="Calque_2_1_">
	<g id="Calque_1-2">
		<path class="st0" d="M203.7,93c-9.8,23.3-26.6,36.6-44.6,49c-9.6,6.6-19.3,13.2-27.4,21.4c-21.2,21.2-25.4,56.5-11.1,82.3
			c43.1-27.2,56.6-63,56.6-63c-8.9,33.7-31.2,58.9-49.7,75c0.1,0.2,0.2,0.4,0.2,0.5c40.5,7.1,72.1-14.8,83.7-56.1
			C221.6,165.8,215.4,130.5,203.7,93z"/>
		<path class="st0" d="M0,161.1c14,12.7,29.6,16.4,45.7,19.1c8.5,1.4,17.2,2.9,25.3,5.8c21.1,7.6,35.1,30.2,33.6,52.2
			c-37.8-4.8-58.3-24.7-58.3-24.7c16.7,20,39.8,30,57.4,35c0,0.2,0,0.3,0,0.4c-25.2,17.7-53.5,12.8-74.4-11.5
			C11,216,4,190.2,0,161.1z"/>
		<path class="st0" d="M151.8,134.8c2.1-1.4,5.7-3.6,9.9-5.8L118.1,0H91L35.2,165.6h22.2l15-46.2h63.3l7.3,22.4
			C145,139.3,148.3,137,151.8,134.8z M78.5,100.5L104,22.5l25.6,78.1H78.5z"/>
	</g>
</g>
</svg>
